ModelForces
version=1
nRows=8
nColumns=67
inDegrees=no

This file contains the forces exerted on a model during a simulation.

A force is a generalized force, meaning that it can be either a force (N) or a torque (Nm).

Units are S.I. units (second, meters, Newtons, ...)
Angles are in degrees.

endheader
time	hamstrings_r	bifemsh_r	glut_max_r	iliopsoas_r	rect_fem_r	vasti_r	gastroc_r	soleus_r	tib_ant_r	hamstrings_l	bifemsh_l	glut_max_l	iliopsoas_l	rect_fem_l	vasti_l	gastroc_l	soleus_l	tib_ant_l	foot_r.ground.force.X	foot_r.ground.force.Y	foot_r.ground.force.Z	foot_r.ground.torque.X	foot_r.ground.torque.Y	foot_r.ground.torque.Z	foot_r.calcn_r.force.X	foot_r.calcn_r.force.Y	foot_r.calcn_r.force.Z	foot_r.calcn_r.torque.X	foot_r.calcn_r.torque.Y	foot_r.calcn_r.torque.Z	foot_r.toes_r.force.X	foot_r.toes_r.force.Y	foot_r.toes_r.force.Z	foot_r.toes_r.torque.X	foot_r.toes_r.torque.Y	foot_r.toes_r.torque.Z	foot_l.ground.force.X	foot_l.ground.force.Y	foot_l.ground.force.Z	foot_l.ground.torque.X	foot_l.ground.torque.Y	foot_l.ground.torque.Z	foot_l.calcn_l.force.X	foot_l.calcn_l.force.Y	foot_l.calcn_l.force.Z	foot_l.calcn_l.torque.X	foot_l.calcn_l.torque.Y	foot_l.calcn_l.torque.Z	foot_l.toes_l.force.X	foot_l.toes_l.force.Y	foot_l.toes_l.force.Z	foot_l.toes_l.torque.X	foot_l.toes_l.torque.Y	foot_l.toes_l.torque.Z	HipLimit_r	PotentialEnergy	HipLimit_l	PotentialEnergy	KneeLimit_r	PotentialEnergy	KneeLimit_l	PotentialEnergy	AnkleLimit_r	PotentialEnergy	AnkleLimit_l	PotentialEnergy
      0.17676799	   1402.71149705	     85.81977758	   1238.28372119	    366.26241078	     42.59878377	   7436.93878699	     60.79687424	   2708.48135239	   2269.16757430	   1555.61949764	    406.76182828	   2031.20826181	    391.03444985	     29.95712501	   7088.24268820	   1933.97055354	     98.80259801	     21.16038189	   -193.90166615	   -170.44869491	      0.00000000	     15.76650428	    -17.93590412	     11.38244531	      0.00000000	      0.00000000	      0.00000000	      0.00000000	      0.00000000	      0.00000000	    193.90166615	    170.44869491	      0.00000000	      0.00000000	      0.00000000	      6.79375694	    134.14338919	   -711.87602148	      0.00000000	    -65.84853199	    -12.40826350	     -0.53420772	      0.00000000	      0.00000000	      0.00000000	      0.00000000	      0.00000000	      0.00000000	   -134.14338919	    711.87602148	      0.00000000	      0.00000000	      0.00000000	     28.48813407	    305.61316086	     19.19422435	    225.90701399	      9.12111287	   -152.99988469	      6.86126392	   -206.60104690	     21.06956562	      0.00000000	      0.00000000	      0.00000000	      0.00000000
      0.17731109	   1414.57959235	     85.42164956	   1220.93054757	    367.01911075	     42.52540114	   7407.42664704	     60.72330890	   2730.34167673	   2267.42010234	   1562.15737671	    407.40237705	   2046.98996261	    391.43992905	     30.01936269	   7106.24601928	   1933.77192403	     99.14198229	     20.74693856	   -188.53370236	   -173.06098922	      0.00000000	     16.00814150	    -17.43936747	     11.59314989	      0.00000000	      0.00000000	      0.00000000	      0.00000000	      0.00000000	      0.00000000	    188.53370236	    173.06098922	      0.00000000	      0.00000000	      0.00000000	      6.92251552	    137.86858608	   -713.17602390	      0.00000000	    -65.96878221	    -12.75284421	     -0.53037823	      0.00000000	      0.00000000	      0.00000000	      0.00000000	      0.00000000	      0.00000000	   -137.86858608	    713.17602390	      0.00000000	      0.00000000	      0.00000000	     28.56500979	    306.46647925	     19.81518167	    227.32864249	      9.44471264	   -152.93377952	      6.83474778	   -204.63137718	     20.71925573	      0.00000000	      0.00000000	      0.00000000	      0.00000000
      0.17785419	   1426.46102929	     85.05952593	   1204.93310252	    367.74751332	     42.44373518	   7379.56081676	     60.64932322	   2751.85081144	   2265.66827218	   1568.68868856	    407.97164003	   2062.50931227	    391.83048417	     30.07432109	   7123.21782274	   1933.84569733	     99.42080083	     20.37593699	   -184.22668151	   -176.58195905	      0.00000000	     16.33383121	    -17.04096804	     11.85830334	      0.00000000	      0.00000000	      0.00000000	      0.00000000	      0.00000000	      0.00000000	    184.22668151	    176.58195905	      0.00000000	      0.00000000	      0.00000000	      7.08618525	    141.73772639	   -714.80041684	      0.00000000	    -66.11903856	    -13.11073969	     -0.52649762	      0.00000000	      0.00000000	      0.00000000	      0.00000000	      0.00000000	      0.00000000	   -141.73772639	    714.80041684	      0.00000000	      0.00000000	      0.00000000	     28.65528464	    307.21278532	     20.42426895	    228.63388057	      9.76471063	   -152.83715954	      6.80949927	   -202.73176669	     20.36875843	      0.00000000	      0.00000000	      0.00000000	      0.00000000
      0.17839730	   1438.34653723	     84.72829684	   1190.22362519	    368.44756012	     42.35875255	   7353.35468986	     60.56116770	   2772.59477524	   2264.12439631	   1575.20674188	    408.47867284	   2077.73751280	    392.20687943	     30.12222311	   7139.23431169	   1934.10389732	     99.64295436	     20.04577704	   -180.86617081	   -181.08640339	      0.00000000	     16.75049231	    -16.73012080	     12.18305227	      0.00000000	      0.00000000	      0.00000000	      0.00000000	      0.00000000	      0.00000000	    180.86617081	    181.08640339	      0.00000000	      0.00000000	      0.00000000	      7.28817021	    145.69921346	   -716.66320825	      0.00000000	    -66.29134676	    -13.47717724	     -0.52270601	      0.00000000	      0.00000000	      0.00000000	      0.00000000	      0.00000000	      0.00000000	   -145.69921346	    716.66320825	      0.00000000	      0.00000000	      0.00000000	     28.75537584	    307.85572309	     21.02066940	    229.83766103	     10.08095447	   -152.71666104	      6.78527672	   -200.90079384	     20.01885052	      0.00000000	      0.00000000	      0.00000000	      0.00000000
      0.17852241	   1441.08434926	     84.65591549	   1187.00970025	    368.60594639	     42.33904579	   7347.55109275	     60.53780872	   2777.23333752	   2263.81392121	   1576.70579916	    408.58754181	   2081.20195857	    392.29170555	     30.13228561	   7142.79639506	   1934.18233920	     99.68660013	     19.97524576	   -180.20670800	   -182.26510936	      0.00000000	     16.85952262	    -16.66912049	     12.26642215	      0.00000000	      0.00000000	      0.00000000	      0.00000000	      0.00000000	      0.00000000	    180.20670800	    182.26510936	      0.00000000	      0.00000000	      0.00000000	      7.34023789	    146.61900379	   -717.11782666	      0.00000000	    -66.33339897	    -13.56225785	     -0.52186222	      0.00000000	      0.00000000	      0.00000000	      0.00000000	      0.00000000	      0.00000000	   -146.61900379	    717.11782666	      0.00000000	      0.00000000	      0.00000000	     28.77947262	    307.98948359	     21.15618615	    230.10209748	     10.15326498	   -152.68589899	      6.77982048	   -200.48856220	     19.93840009	      0.00000000	      0.00000000	      0.00000000	      0.00000000
      0.17861741	   1443.16274300	     84.60188026	   1184.61211348	    368.72480288	     42.32409083	   7343.20291984	     60.51919632	   2780.71635989	   2263.59119254	   1577.84318098	    408.66834274	   2083.82096151	    392.35562613	     30.13968645	   7145.46999848	   1934.24569988	     99.71793778	     19.92303149	   -179.73101252	   -183.19487058	      0.00000000	     16.94552553	    -16.62511866	     12.33182968	      0.00000000	      0.00000000	      0.00000000	      0.00000000	      0.00000000	      0.00000000	    179.73101252	    183.19487058	      0.00000000	      0.00000000	      0.00000000	      7.38114295	    147.31844698	   -717.46812226	      0.00000000	    -66.36580131	    -13.62695635	     -0.52123053	      0.00000000	      0.00000000	      0.00000000	      0.00000000	      0.00000000	      0.00000000	   -147.31844698	    717.46812226	      0.00000000	      0.00000000	      0.00000000	     28.79797583	    308.08748496	     21.25859114	    230.29986741	     10.20802705	   -152.66182065	      6.77570595	   -200.17796106	     19.87737171	      0.00000000	      0.00000000	      0.00000000	      0.00000000
      0.17869950	   1444.95864235	     84.55580681	   1182.56940792	    368.82665469	     42.31118085	   7339.48561200	     60.50247887	   2783.69866478	   2263.40807571	   1578.82553336	    408.73691349	   2086.07629671	    392.41053518	     30.14591724	   7147.75931406	   1934.30287243	     99.74379200	     19.87882318	   -179.33619307	   -184.02236450	      0.00000000	     17.02206872	    -16.58859786	     12.38980549	      0.00000000	      0.00000000	      0.00000000	      0.00000000	      0.00000000	      0.00000000	    179.33619307	    184.02236450	      0.00000000	      0.00000000	      0.00000000	      7.41744009	    147.92340209	   -717.77409539	      0.00000000	    -66.39410382	    -13.68291469	     -0.52069163	      0.00000000	      0.00000000	      0.00000000	      0.00000000	      0.00000000	      0.00000000	   -147.92340209	    717.77409539	      0.00000000	      0.00000000	      0.00000000	     28.81409699	    308.16971424	     21.34674773	    230.46875188	     10.25525467	   -152.64051297	      6.77216894	   -199.91119393	     19.82467161	      0.00000000	      0.00000000	      0.00000000	      0.00000000
      0.17882830	   1447.77613145	     84.48464675	   1179.41822696	    368.98497786	     42.29096489	   7333.72789830	     60.47502954	   2788.32539304	   2263.13872812	   1580.36586359	    408.84222526	   2089.60012547	    392.49608554	     30.15538822	   7151.31246467	   1934.39669392	     99.78211265	     19.81113670	   -178.74491739	   -185.36515695	      0.00000000	     17.14627702	    -16.53390486	     12.48345306	      0.00000000	      0.00000000	      0.00000000	      0.00000000	      0.00000000	      0.00000000	    178.74491739	    185.36515695	      0.00000000	      0.00000000	      0.00000000	      7.47614764	    148.87312367	   -718.25970073	      0.00000000	    -66.43902232	    -13.77076394	     -0.51986050	      0.00000000	      0.00000000	      0.00000000	      0.00000000	      0.00000000	      0.00000000	   -148.87312367	    718.25970073	      0.00000000	      0.00000000	      0.00000000	     28.83961259	    308.29415730	     21.48443301	    230.73007892	     10.32917820	   -152.60614654	      6.76665246	   -199.49567912	     19.74205925	      0.00000000	      0.00000000	      0.00000000	      0.00000000
